<svg width="116" height="137" viewBox="0 0 116 137" fill="none" xmlns="http://www.w3.org/2000/svg">
<path d="M115.865 36.9604L115.861 36.8544C115.801 35.5459 115.762 34.1616 115.738 32.6214C115.627 25.1105 109.656 18.8976 102.144 18.4777C86.4821 17.6037 74.3661 12.4966 64.0138 2.40621L63.9254 2.32203C60.5488 -0.774009 55.4553 -0.774009 52.0776 2.32203L51.9892 2.40621C41.6369 12.4966 29.5209 17.6037 13.8588 18.4788C6.34791 18.8976 0.376173 25.1105 0.26497 32.6224C0.242105 34.1523 0.201573 35.5366 0.142334 36.8544L0.136098 37.1007C-0.168413 53.0714 -0.546713 72.9478 6.10264 90.9888C9.75885 100.91 15.2962 109.534 22.5597 116.623C30.8325 124.696 41.6681 131.105 54.7652 135.672C55.1913 135.82 55.634 135.941 56.0851 136.031C56.7211 136.158 57.3613 136.222 58.0015 136.222C58.6417 136.222 59.2829 136.158 59.9179 136.031C60.369 135.941 60.8149 135.819 61.243 135.67C74.3245 131.095 85.1487 124.682 93.4142 116.61C100.675 109.519 106.212 100.893 109.871 90.9701C116.546 72.875 116.168 52.9613 115.865 36.9604ZM102.372 88.2045C95.3587 107.219 81.0425 120.278 58.6053 128.125C58.5253 128.152 58.4401 128.175 58.3517 128.193C58.12 128.239 57.8841 128.239 57.6492 128.192C57.5619 128.174 57.4767 128.152 57.3977 128.125C34.9366 120.293 20.6111 107.241 13.6032 88.2253C7.4745 71.5957 7.82162 53.35 8.12821 37.2535L8.13029 37.1641C8.19265 35.7808 8.23422 34.3321 8.25708 32.7399C8.30697 29.4048 10.9634 26.6455 14.3047 26.4595C23.1677 25.9648 30.9541 24.252 38.1085 21.2235C45.2536 18.1992 51.5995 13.9361 57.5068 8.19088C57.8072 7.93729 58.1969 7.93625 58.4962 8.19088C64.4045 13.9361 70.7504 18.1992 77.8945 21.2235C85.0489 24.252 92.8353 25.9648 101.699 26.4595C105.041 26.6455 107.697 29.4048 107.746 32.7409C107.77 34.3414 107.811 35.7902 107.874 37.1641C108.179 53.2793 108.518 71.5396 102.372 88.2045Z" fill="#ECECEC"/>
<path d="M57.9995 34.1649C39.2799 34.1649 24.0511 49.3946 24.0511 68.1132C24.0511 86.8329 39.2799 102.063 57.9995 102.063C76.7182 102.063 91.9479 86.8329 91.9479 68.1132C91.9479 49.3946 76.7182 34.1649 57.9995 34.1649ZM57.9995 94.0685C43.6875 94.0685 32.0443 82.4253 32.0443 68.1132C32.0443 53.8012 43.6875 42.158 57.9995 42.158C72.3106 42.158 83.9537 53.8012 83.9537 68.1132C83.9537 82.4253 72.3106 94.0685 57.9995 94.0685Z" fill="#ECECEC"/>
<path d="M67.7564 57.5738L51.9883 73.3419L47.7085 69.0621C46.1475 67.5011 43.6169 67.5011 42.0558 69.0621C40.4959 70.6231 40.4959 73.1538 42.0558 74.7137L49.1625 81.8204C49.943 82.6009 50.9657 82.9906 51.9883 82.9906C53.011 82.9906 54.0337 82.6009 54.8142 81.8204L73.4091 63.2254C74.9691 61.6644 74.9691 59.1337 73.4091 57.5738C71.8481 56.0117 69.3175 56.0117 67.7564 57.5738Z" fill="#ECECEC"/>
</svg>
