<svg width="99" height="26" viewBox="0 0 99 26" fill="none" xmlns="http://www.w3.org/2000/svg">
<path d="M22.3749 4.37396C22.9985 3.52847 23.521 2.58258 23.7353 1.95468L24.3023 2.51043L24.7562 0.448273L22.7132 0.954331L23.2862 1.516C23.2802 1.52071 22.1148 2.2609 20.0009 2.74336C18.1662 3.16193 15.9558 3.19502 15.9558 3.19502C15.8791 3.42949 15.2193 5.59748 14.7491 7.14256C14.6074 7.60807 14.483 8.01703 14.3969 8.29958C17.6268 8.30193 20.9603 6.29182 22.3749 4.37396Z" fill="white"/>
<path fill-rule="evenodd" clip-rule="evenodd" d="M52.791 7.98986C52.791 9.39454 52.2386 10.8797 51.0838 11.9652C49.9786 13.0033 48.4184 13.546 46.8088 13.546C45.1992 13.546 43.639 13.0033 42.5338 11.9652C41.3794 10.8797 40.8268 9.39454 40.8268 7.98986C40.8268 6.56858 41.3794 5.06802 42.5338 3.99794C43.639 2.9598 45.1992 2.41703 46.8088 2.41703C48.4184 2.41703 49.9786 2.96095 51.0838 3.99794C52.2386 5.06802 52.791 6.56858 52.791 7.98986ZM44.6141 5.94539C44.0291 6.5047 43.7522 7.28632 43.7522 8.03713C43.7522 8.97952 44.2084 9.63338 44.6141 10.0153C45.1342 10.5107 45.8662 10.8619 46.8088 10.8619C47.7671 10.8619 48.4822 10.5273 48.9866 10.0318C49.4898 9.53762 49.8642 8.80335 49.8642 7.98865C49.8642 7.15856 49.4911 6.42428 48.9866 5.94539C48.3859 5.38614 47.5564 5.09882 46.8088 5.09882C46.0287 5.09882 45.1992 5.37074 44.6141 5.94539Z" fill="white"/>
<path d="M39.3907 13.306V2.65702H29.8644V13.306H32.6766V5.01948H36.5628V13.306H39.3907Z" fill="white"/>
<path fill-rule="evenodd" clip-rule="evenodd" d="M36.6361 18.0617C35.0314 18.0617 34.356 19.1188 34.356 20.1676C34.356 21.402 35.2757 22.095 36.2484 22.095C36.5181 22.095 36.7348 22.0323 36.925 21.9531L35.5008 23.7479L36.3303 24.3699L38.1602 21.9531C38.5479 21.447 38.9174 20.8605 38.9174 20.1049C38.9174 19.0301 38.1602 18.0617 36.6361 18.0617ZM36.6361 21.1715C36.0053 21.1715 35.5273 20.7091 35.5273 20.0789C35.5273 19.4487 36.0053 18.9863 36.6361 18.9863C37.267 18.9863 37.7449 19.4487 37.7449 20.0789C37.7449 20.7091 37.267 21.1715 36.6361 21.1715Z" fill="white"/>
<path d="M29.8644 19.1897H30.73V24.1204H31.9014V18.1953H29.8644V19.1897Z" fill="white"/>
<path fill-rule="evenodd" clip-rule="evenodd" d="M43.2707 18.0876H44.3265V22.1469H45.0295V23.0716H44.3265V24.1204H43.2261V23.0716H40.2875V22.556L43.2707 18.0876ZM41.6744 22.1481H43.2249V19.7939L41.6744 22.1481Z" fill="white"/>
<path d="M48.5425 20.0872C48.3896 20.0872 48.2632 20.1049 48.1452 20.1227L48.3619 19.1897H50.3627V18.1942H47.5866L46.874 21.3039H46.9462C47.3783 20.9835 47.7937 20.922 48.0995 20.922C49.0192 20.922 49.4598 21.4907 49.4598 22.1127C49.4598 22.7879 48.9735 23.2585 48.2523 23.2585C47.5036 23.2585 46.9991 22.8316 46.7295 22.5041L46.3418 23.4997C47.0449 24.1749 47.8021 24.2541 48.2801 24.2541C49.939 24.2541 50.6324 23.2147 50.6324 22.095C50.6336 20.8156 49.7235 20.0872 48.5425 20.0872Z" fill="white"/>
<path d="M52.3094 21.0816H57.0901V22.0063H52.3094V21.0816Z" fill="white"/>
<path d="M61.827 22.0157L61.829 22.0138C62.2984 21.5162 62.9176 20.8593 62.9176 19.9453C62.9176 19.0029 62.1969 18.0617 60.7991 18.0617C59.6097 18.0617 58.7439 18.835 58.6901 20.0434H59.8972C59.9156 19.5374 60.2405 19.0573 60.8529 19.0573C61.3577 19.0573 61.7453 19.4215 61.7453 19.9547C61.7453 20.3012 61.5566 20.6654 61.3938 20.9055C61.2064 21.1822 60.6567 21.8093 60.4401 22.0558V22.056L60.4367 22.0596C60.4047 22.0966 60.3801 22.1245 60.3658 22.1411L58.5981 24.1216H62.9612V23.126H60.7895L61.827 22.0157Z" fill="white"/>
<path fill-rule="evenodd" clip-rule="evenodd" d="M64.6935 21.1537C64.6935 19.1188 65.8202 18.0617 67.0197 18.0617C68.2186 18.0617 69.3453 19.1188 69.3453 21.162C69.3453 23.197 68.2186 24.2541 67.0197 24.2541C65.8202 24.2541 64.6935 23.197 64.6935 21.1537ZM65.8658 21.1526C65.8658 22.6992 66.5054 23.2584 67.0197 23.2584C67.532 23.2584 68.173 22.6992 68.173 21.1526C68.173 19.6154 67.5238 19.0561 67.0197 19.0561C66.515 19.0561 65.8658 19.6154 65.8658 21.1526Z" fill="white"/>
<path d="M73.8698 22.0157L73.8712 22.0138C74.3406 21.5162 74.9604 20.8593 74.9604 19.9453C74.9604 19.0029 74.2391 18.0617 72.8412 18.0617C71.6519 18.0617 70.7868 18.835 70.7323 20.0434H71.94C71.9577 19.5374 72.2827 19.0573 72.8957 19.0573C73.3998 19.0573 73.7874 19.4215 73.7874 19.9547C73.7874 20.3012 73.5987 20.6654 73.4359 20.9055C73.2493 21.1822 72.6989 21.8093 72.4829 22.0558L72.4393 22.1049L72.4237 22.1233L72.4121 22.136L72.408 22.1411L70.641 24.1216H75.0034V23.126H72.8317L73.8698 22.0157Z" fill="white"/>
<path fill-rule="evenodd" clip-rule="evenodd" d="M76.735 21.1537C76.735 19.1188 77.8617 18.0617 79.0606 18.0617C80.2595 18.0617 81.3868 19.1188 81.3868 21.162C81.3868 23.197 80.2595 24.2541 79.0606 24.2541C77.8617 24.2541 76.735 23.197 76.735 21.1537ZM77.9073 21.1526C77.9073 22.6992 78.547 23.2584 79.0606 23.2584C79.5749 23.2584 80.2138 22.6992 80.2138 21.1526C80.2138 19.6154 79.5653 19.0561 79.0606 19.0561C78.5565 19.0561 77.9073 19.6154 77.9073 21.1526Z" fill="white"/>
<path fill-rule="evenodd" clip-rule="evenodd" d="M61.5055 12.3482C62.0906 11.7735 62.3999 10.9434 62.3999 10.0815C62.3999 9.18757 62.075 8.40481 61.5709 7.87744C60.7582 7.04735 59.5232 6.83923 58.1411 6.83923H57.0355V5.00415H61.2623V2.65702H54.2079V13.306H58.0444C59.3448 13.306 60.6451 13.1782 61.5055 12.3482ZM57.0355 11.1503V8.94752H58.011C58.3686 8.94752 58.8884 8.96406 59.2133 9.23484C59.3918 9.39447 59.5389 9.66526 59.5389 10.033C59.5389 10.3523 59.4245 10.6076 59.2616 10.7838C58.9197 11.135 58.3189 11.1503 58.0096 11.1503H57.0355Z" fill="white"/>
<path d="M69.97 2.65702V5.00415H66.6212V6.77656H69.7908V9.12255H66.6212V10.9588H69.97V13.306H63.8086V2.65702H69.97Z" fill="white"/>
<path fill-rule="evenodd" clip-rule="evenodd" d="M82.4712 15.7015V11.167H81.1708V2.65702H72.9775V7.03201C72.9775 8.54905 72.8473 9.69834 72.0347 10.5284C71.628 10.9434 71.222 11.1031 70.7997 11.167V15.7015H73.3351V13.306H79.9345V15.7015H82.4712ZM78.3432 11.167H74.5061C74.9611 10.7034 75.254 10.2092 75.4488 9.5387C75.6763 8.74062 75.709 7.81356 75.709 7.3028V4.79604H78.3432V11.167Z" fill="white"/>
<path fill-rule="evenodd" clip-rule="evenodd" d="M83.1825 13.306L87.3446 2.65702H90.4181L94.4978 13.306H91.491L90.8234 11.5181H86.8895L86.1573 13.306H83.1825ZM88.8568 5.96072L87.6695 9.40987H90.0762L88.8568 5.96072Z" fill="white"/>
<path d="M98.3008 10.7992C97.9432 10.448 97.5038 10.2884 97.0985 10.2884C96.7409 10.2884 96.3015 10.3995 95.9112 10.7838C95.6993 10.9908 95.4071 11.3751 95.4071 11.9497C95.4071 12.5244 95.6993 12.9075 95.9112 13.1155C96.3015 13.4987 96.7409 13.611 97.0985 13.611C97.5208 13.611 97.9432 13.4514 98.2851 13.1155C98.578 12.8282 98.7729 12.4771 98.7729 11.9497C98.7729 11.4223 98.578 11.0711 98.3008 10.7992Z" fill="white"/>
<path d="M95.7334 2.65702H98.4309V9.6818H95.7334V2.65702Z" fill="white"/>
<path d="M9.18053 14.8384C9.90287 12.0041 11.3427 9.45714 13.1654 7.16326L13.6938 7.77691L14.3222 5.75974L12.2432 6.09433L12.7656 6.70091C9.94619 8.21445 3.37302 11.997 1.32645 21.2968C0.984556 22.8493 0.681152 25.3229 0.681152 25.3229C0.681152 25.3229 5.81809 25.3809 8.61466 25.0865C8.6086 24.563 8.59784 24.0367 8.58708 23.5089C8.52761 20.598 8.46719 17.639 9.18053 14.8384Z" fill="white"/>
<path d="M14.1706 10.3913C17.1165 7.80179 23.4477 7.64102 24.5576 12.5291C26.6355 21.6812 11.9302 24.8003 11.4691 24.7792V18.4259C14.3235 18.0049 19.576 16.877 19.9841 13.7021C20.3959 10.5001 16.7204 10.0626 14.4451 10.9317L14.811 11.6399L12.7079 11.4886L13.7998 9.67238L14.1706 10.3913Z" fill="white"/>
<path d="M12.531 5.23357L12.8271 4.47448C12.8284 4.47448 8.04775 4.1647 2.14392 8.8601V1.69224C4.13634 1.28899 6.17937 1.1767 7.84911 1.58344C10.8877 2.32249 13.0198 3.90925 13.0402 3.92701L13.3339 3.1655L14.6052 4.90012L12.531 5.23357Z" fill="white"/>
</svg>
