<svg width="54" height="66" viewBox="0 0 54 66" fill="none" xmlns="http://www.w3.org/2000/svg">
<g clip-path="url(#clip0)">
<path d="M42.9702 6.97684C44.009 5.51943 44.8765 3.88847 45.2329 2.80486L46.1772 3.76387L46.9312 0.210462L43.5323 1.08266L44.4851 2.05059L44.4834 2.05191C44.4112 2.09845 42.4786 3.3479 39.0206 4.16661C35.969 4.88752 32.2924 4.94539 32.2924 4.94539C32.182 5.29589 31.3463 8.13932 30.616 10.6243L30.6148 10.6282C30.2468 11.8804 29.9057 13.0411 29.6978 13.7455C35.0728 13.7477 40.6184 10.2833 42.9702 6.97684Z" fill="white"/>
<path d="M21.0241 25.0176C22.2263 20.1314 24.622 15.7413 27.6517 11.7874L28.5304 12.8465L29.5774 9.36875L26.1194 9.94729L26.9893 10.993C22.2984 13.5986 11.3646 20.1203 7.95899 36.154C7.39065 38.8307 6.88574 43.094 6.88574 43.094C6.88574 43.094 15.4304 43.1941 20.0819 42.6867C20.0719 41.784 20.0541 40.8764 20.0362 39.9663C19.9379 34.9456 19.8379 29.8452 21.0241 25.0176Z" fill="white"/>
<path fill-rule="evenodd" clip-rule="evenodd" d="M18.1016 52.5236C18.1016 53.6609 17.671 54.8643 16.7682 55.7433C15.9048 56.582 14.6851 57.025 13.426 57.025C12.1669 57.025 10.9472 56.5843 10.0838 55.7433C9.1832 54.8643 8.75037 53.6609 8.75037 52.5236C8.75037 51.3737 9.18102 50.1564 10.0838 49.2907C10.9472 48.4519 12.1669 48.0113 13.426 48.0113C14.6851 48.0113 15.9048 48.4496 16.7682 49.2907C17.6688 50.1564 18.1016 51.3737 18.1016 52.5236ZM11.71 50.8663C11.2532 51.3202 11.0368 51.9541 11.0368 52.5616C11.0368 53.3249 11.3931 53.8542 11.71 54.1636C12.1166 54.564 12.6893 54.8488 13.426 54.8488C14.1758 54.8488 14.7353 54.5772 15.1288 54.1769C15.5223 53.7765 15.8152 53.18 15.8152 52.5213C15.8152 51.8494 15.5223 51.2534 15.1288 50.8663C14.6588 50.4141 14.0096 50.1806 13.426 50.1806C12.8161 50.1806 12.1669 50.4009 11.71 50.8663Z" fill="white"/>
<path d="M7.62679 56.8294V48.2028H0.181641V56.8294H2.38063V50.1161H5.41686V56.8294H7.62679Z" fill="white"/>
<path fill-rule="evenodd" clip-rule="evenodd" d="M12.0401 60.6807C10.7853 60.6807 10.2585 61.5373 10.2585 62.3875C10.2585 63.3884 10.9777 63.9493 11.7384 63.9493C11.9504 63.9493 12.1187 63.8981 12.2674 63.8337L11.1547 65.2868L11.804 65.7896L13.2335 63.8314C13.5374 63.4224 13.8259 62.9461 13.8259 62.334C13.8237 61.4665 13.2313 60.6807 12.0401 60.6807ZM12.0401 63.1998C11.546 63.1998 11.1722 62.8258 11.1722 62.3139C11.1722 61.8025 11.546 61.4285 12.0401 61.4285C12.5341 61.4285 12.9057 61.8025 12.9057 62.3139C12.9057 62.8258 12.5341 63.1998 12.0401 63.1998Z" fill="white"/>
<path d="M6.74597 61.5954H7.42358V65.5894H8.33943V60.79H6.74597V61.5954Z" fill="white"/>
<path fill-rule="evenodd" clip-rule="evenodd" d="M17.225 60.7031H18.049V63.9942H18.5977V64.7414H18.049V65.5917H17.1899V64.7414H14.8926V64.3232L17.225 60.7031ZM15.979 63.9919H17.1899V62.0849L15.979 63.9919Z" fill="white"/>
<path d="M21.3476 62.3231C21.2274 62.3231 21.129 62.3363 21.0372 62.3518L21.2055 61.5954H22.7684V60.79H20.5979L20.0405 63.3085H20.0973C20.4361 63.0485 20.7596 62.9996 21 62.9996C21.7192 62.9996 22.0646 63.4598 22.0646 63.9625C22.0646 64.5102 21.6842 64.8904 21.1203 64.8904C20.5344 64.8904 20.141 64.5458 19.929 64.2789L19.6251 65.0843C20.1738 65.6313 20.7662 65.6964 21.14 65.6964C22.4362 65.6964 22.9783 64.8548 22.9783 63.947C22.9805 62.9127 22.2701 62.3231 21.3476 62.3231Z" fill="white"/>
<path d="M24.2898 63.1284H28.0255V63.8763H24.2898V63.1284Z" fill="white"/>
<path d="M31.7305 63.8849L31.7311 63.8843C32.0983 63.4816 32.583 62.9501 32.583 62.2074C32.583 61.4441 32.0191 60.6807 30.9283 60.6807C29.9993 60.6807 29.3216 61.306 29.2801 62.2851H30.2244C30.2397 61.8755 30.4933 61.4861 30.972 61.4861C31.3655 61.4861 31.6693 61.7823 31.6693 62.2138C31.6693 62.4945 31.5206 62.7902 31.3939 62.984C31.2592 63.1923 30.8795 63.6427 30.6907 63.867C30.6435 63.9228 30.6083 63.9648 30.5917 63.985L29.2102 65.5894H32.6202V64.784H30.9218L31.7305 63.8849Z" fill="white"/>
<path fill-rule="evenodd" clip-rule="evenodd" d="M33.9711 63.1859C33.9711 61.5373 34.852 60.6807 35.7897 60.6807C36.7253 60.6807 37.6062 61.5373 37.6084 63.1928C37.6084 64.8415 36.7275 65.6981 35.7897 65.6981C34.852 65.6981 33.9711 64.8415 33.9711 63.1859ZM34.887 63.1842C34.887 64.4365 35.3875 64.8904 35.7897 64.8904C36.1898 64.8904 36.6903 64.4388 36.6925 63.1842C36.6925 61.9399 36.1832 61.4861 35.7897 61.4861C35.3941 61.4861 34.887 61.9382 34.887 63.1842Z" fill="white"/>
<path d="M41.1429 63.8849L41.1435 63.8843C41.5107 63.4816 41.9955 62.9501 41.9955 62.2074C41.9955 61.4441 41.4317 60.6807 40.3408 60.6807C39.4118 60.6807 38.7341 61.306 38.6926 62.2851H39.6369C39.6522 61.8755 39.9058 61.4861 40.3845 61.4861C40.778 61.4861 41.0816 61.7823 41.0816 62.2138C41.0816 62.4945 40.9332 62.7902 40.8064 62.984C40.6717 63.1923 40.292 63.6427 40.1032 63.867C40.056 63.9228 40.0208 63.9648 40.0041 63.985L38.6227 65.5894H42.0327V64.784H40.3342L41.1429 63.8849Z" fill="white"/>
<path fill-rule="evenodd" clip-rule="evenodd" d="M43.3816 63.1859C43.3816 61.5373 44.2623 60.6807 45.2002 60.6807C46.1376 60.6807 47.0189 61.5373 47.0189 63.1928C47.0189 64.8415 46.1376 65.6981 45.2002 65.6981C44.2623 65.6981 43.3816 64.8415 43.3816 63.1859ZM44.2972 63.1842C44.2972 64.4365 44.798 64.8904 45.2002 64.8904C45.6025 64.8904 46.1027 64.4388 46.1027 63.1842C46.1027 61.9399 45.5933 61.4861 45.2002 61.4861C44.8043 61.4861 44.2972 61.9382 44.2972 63.1842Z" fill="white"/>
<path fill-rule="evenodd" clip-rule="evenodd" d="M24.9149 56.0528C25.3717 55.5874 25.6144 54.9132 25.6144 54.2171C25.6144 53.4917 25.3608 52.8595 24.9674 52.4327C24.3313 51.7608 23.3673 51.5917 22.2853 51.5917H21.4218V50.1052H24.7247V48.2028H19.2097V56.8294H22.2088C23.2252 56.8294 24.2416 56.7247 24.9149 56.0528ZM21.4196 53.2979H22.1826C22.4624 53.2979 22.8689 53.3117 23.1225 53.5314C23.2624 53.6609 23.376 53.8812 23.376 54.1792C23.376 54.4375 23.2864 54.644 23.1596 54.7866C22.893 55.0714 22.423 55.0846 22.1803 55.0846H21.4196V53.2979Z" fill="white"/>
<path d="M31.5294 48.2028V50.1029H28.9129V51.5382H31.3895V53.4405H28.9129V54.927H31.5294V56.8294H26.7139V48.2028H31.5294Z" fill="white"/>
<path fill-rule="evenodd" clip-rule="evenodd" d="M41.3027 58.7697V55.0961H40.2861V48.2028H33.8814V51.747C33.8814 52.9752 33.7808 53.9077 33.1448 54.5795C32.8278 54.9155 32.5086 55.0449 32.1786 55.0961V58.7697H34.1612V56.8294H39.3199V58.7697H41.3027ZM38.0739 55.0961H35.0749C35.4312 54.7199 35.6585 54.3195 35.8115 53.7765C35.9886 53.1288 36.0148 52.3792 36.0148 51.965V49.9338H38.0739V55.0961Z" fill="white"/>
<path fill-rule="evenodd" clip-rule="evenodd" d="M41.858 56.8294L45.1103 48.2028H47.5128L50.702 56.8294H48.3522L47.8319 55.3809H44.7562L44.1838 56.8294H41.858ZM46.2906 50.8795L45.3641 53.6741H47.2441L46.2906 50.8795Z" fill="white"/>
<path d="M53.6746 54.7976C53.395 54.5128 53.0518 54.384 52.7349 54.384C52.4547 54.384 52.1115 54.4749 51.8078 54.7843C51.6417 54.9535 51.4142 55.263 51.4142 55.7278C51.4142 56.1931 51.6439 56.5044 51.8078 56.6712C52.1115 56.9807 52.4547 57.0716 52.7349 57.0716C53.0649 57.0716 53.395 56.9427 53.6614 56.6712C53.8912 56.4376 54.0419 56.1529 54.0419 55.7278C54.0442 55.3026 53.8912 55.0179 53.6746 54.7976Z" fill="white"/>
<path d="M51.668 48.2028H53.7771V53.8944H51.668V48.2028Z" fill="white"/>
<path d="M29.3261 17.3523C34.2269 12.8866 44.7584 12.6107 46.6034 21.0369C50.0591 36.8126 25.5992 42.1906 24.8341 42.1507V31.1988C29.5797 30.4757 38.3189 28.5287 38.9965 23.0573C39.6807 17.5392 33.5689 16.7849 29.783 18.2823L30.3907 19.5039L26.8911 19.2436L28.7097 16.1129L29.3261 17.3523Z" fill="white"/>
<path d="M26.598 8.45876L27.0899 7.1504C27.092 7.1504 19.1398 6.61639 9.3208 14.7111V2.35542C12.6346 1.65895 16.0314 1.46538 18.8119 2.16627C23.8657 3.44127 27.4112 6.17586 27.4461 6.20698L27.9336 4.89419L30.0495 7.88471L26.598 8.45876Z" fill="white"/>
</g>
<defs>
<clipPath id="clip0">
<rect width="54" height="66" fill="white"/>
</clipPath>
</defs>
</svg>
